<?xml version="1.0" encoding="UTF-8"?>
<!DOCTYPE svg PUBLIC "-//W3C//DTD SVG 1.1 Tiny//EN" "http://www.w3.org/Graphics/SVG/1.1/DTD/svg11-tiny.dtd">
<svg baseProfile="tiny" version="1.1" xmlns="http://www.w3.org/2000/svg" xmlns:xlink="http://www.w3.org/1999/xlink" x="0px" y="0px" width="44px" height="44px" viewBox="0 0 44 44">
<polygon fill="#969595" points="34.685,15.529 34.685,37.397 10.081,37.397 10.081,8.696 27.849,8.696 "/>
<path d="M9.441,38.034V8.059h18.67l7.025,7.018l-0.453,0.45l0.453-0.45l0.186,0.188v22.771H9.441L9.441,38.034z M10.715,36.758  h23.334V15.79l-6.466-6.457H10.715V36.758L10.715,36.758z"/>
<linearGradient id="SVGID_1_" gradientUnits="userSpaceOnUse" x1="12.4365" y1="10.5537" x2="29.1175" y2="37.5239">
<stop offset="0" style="stop-color:#FFFFFF"/>
<stop offset="1" style="stop-color:#000000"/>
</linearGradient>
<polygon fill="url(#SVGID_1_)" points="25.667,10.744 12.13,10.744 12.13,35.35 32.634,35.35 32.634,17.921 25.667,17.921 "/>
<path fill="#FFFFFF" d="M33.659,16.21v20.163H11.107V9.721H27.27L33.659,16.21z M26.691,10.744H12.13V35.35h20.504V16.897h-5.943  V10.744z"/>
<polygon display="none" fill="#349746" points="21.243,7.925 13.042,7.925 13.042,27.061 15.091,27.061 17.142,23.645   19.192,27.061 21.243,27.061 "/>
<polygon display="none" fill="#88C444" points="20.561,8.608 13.724,8.608 13.724,26.378 14.749,26.378 17.142,22.62 19.535,26.378   20.561,26.378 "/>
<linearGradient id="SVGID_2_" gradientUnits="userSpaceOnUse" x1="11.6748" y1="12.0273" x2="22.6087" y2="22.9613">
<stop offset="0" style="stop-color:#88C444"/>
<stop offset="1" style="stop-color:#3EAF49"/>
</linearGradient>
<polygon display="none" fill="url(#SVGID_2_)" points="19.875,9.293 14.408,9.293 14.408,25.694 17.142,21.595 19.875,25.694 "/>
<polygon display="none" fill="#349746" points="20.787,13.991 13.951,13.991 13.951,7.155 8.484,7.155 8.484,13.991 1.651,13.991   1.651,19.457 8.484,19.457 8.484,26.292 13.951,26.292 13.951,19.457 20.787,19.457 "/>
<polygon display="none" fill="#88C444" points="20.103,14.675 13.267,14.675 13.267,7.841 9.168,7.841 9.168,14.675 2.334,14.675   2.334,18.773 9.168,18.773 9.168,25.609 13.267,25.609 13.267,18.773 20.103,18.773 "/>
<linearGradient id="SVGID_3_" gradientUnits="userSpaceOnUse" x1="6.4326" y1="11.9414" x2="16.0013" y2="21.5101">
<stop offset="0" style="stop-color:#88C444"/>
<stop offset="1" style="stop-color:#3EAF49"/>
</linearGradient>
<polygon display="none" fill="url(#SVGID_3_)" points="19.417,15.358 12.584,15.358 12.584,8.524 9.851,8.524 9.851,15.358   3.015,15.358 3.015,18.093 9.851,18.093 9.851,24.926 12.584,24.926 12.584,18.093 19.417,18.093 "/>
<path fill="#FCEA0B" d="M32.5,34.783c-0.903-0.102-1.809-0.188-2.718-0.261c0.58-0.103,1.157-0.222,1.729-0.371  c0.279-0.073,0.314-0.314,0.156-0.489c-0.167-0.188-0.432-0.303-0.682-0.393c-1.281-0.459-2.625-0.763-3.981-1.01l0.004-0.333  c1.495-0.087,2.979-0.255,4.437-0.618c0.595-0.148,0.024-0.641-0.24-0.766c-1.249-0.596-2.376-1.334-3.677-1.857  c-0.41-0.164-1.279-0.317-1.658-0.009c-0.41,0.332,0.441,0.695,0.689,0.794c-0.24-0.097,0.093,0.043,0.114,0.053  c0.067,0.031,0.133,0.062,0.199,0.092c0.055,0.027,0.108,0.055,0.164,0.081l-0.013,1.032c-0.783,0.081-1.386,0.116-2.215,0.141  c-1.661,0.053-3.324,0.028-4.986,0.085c-0.262,0.007-0.874,0.063-0.754,0.418c0.088,0.259,0.493,0.455,0.772,0.536  c1.821,0.521,3.701,0.812,5.59,1.11c0.225,0.035,0.451,0.07,0.676,0.106c0.112,0.019,0.225,0.038,0.337,0.057  c-0.307-0.052,0.067,0.012,0.107,0.019c0.148,0.026,0.294,0.058,0.441,0.085l-0.004,0.343c-0.32,0.042-0.64,0.091-0.961,0.122  c-1.187,0.115-2.227,0.163-3.463,0.221c-0.351,0.018-1.032,0.151-0.664,0.562c0.293,0.326,0.886,0.497,1.351,0.542  c1.165,0.112,2.334,0.194,3.503,0.274H32.5V34.783z"/>
<path fill="#ED1C24" d="M29.561,34.683c-1.171-0.121-2.346-0.223-3.524-0.308c0.752-0.121,1.5-0.262,2.242-0.438  c0.361-0.086,0.407-0.37,0.202-0.576c-0.217-0.221-0.56-0.356-0.884-0.463c-1.662-0.541-3.404-0.899-5.164-1.189l0.005-0.393  c1.938-0.103,3.864-0.301,5.754-0.729c0.771-0.175,0.031-0.755-0.312-0.901c-1.619-0.703-3.081-1.573-4.769-2.19  c-0.531-0.193-1.658-0.374-2.15-0.011c-0.531,0.392,0.572,0.82,0.895,0.937c-0.311-0.114,0.12,0.051,0.148,0.062  c0.087,0.037,0.172,0.073,0.258,0.108c0.072,0.032,0.141,0.064,0.212,0.096l-0.017,1.217c-1.016,0.096-1.797,0.138-2.873,0.166  c-2.154,0.062-4.311,0.033-6.466,0.1c-0.34,0.009-1.134,0.075-0.978,0.493c0.115,0.305,0.639,0.536,1.001,0.632  c2.362,0.615,4.799,0.958,7.249,1.309c0.292,0.042,0.585,0.083,0.877,0.125c0.145,0.022,0.291,0.046,0.437,0.067  c-0.398-0.061,0.088,0.014,0.14,0.021c0.192,0.032,0.381,0.068,0.572,0.101L22.41,33.32c-0.416,0.049-0.83,0.106-1.247,0.144  c-1.54,0.136-2.888,0.192-4.491,0.26c-0.455,0.021-1.339,0.179-0.861,0.663c0.38,0.385,1.149,0.586,1.752,0.64  c1.511,0.133,3.028,0.229,4.543,0.323h7.455V34.683z"/>
<rect fill="none" width="44" height="44"/>
<linearGradient id="SVGID_4_" gradientUnits="userSpaceOnUse" x1="12.2573" y1="16.1152" x2="25.6177" y2="16.1152">
<stop offset="0" style="stop-color:#E6E6E6"/>
<stop offset="0.2065" style="stop-color:#E2E2E2"/>
<stop offset="0.37" style="stop-color:#D8D8D8"/>
<stop offset="0.5187" style="stop-color:#C8C8C8"/>
<stop offset="0.6587" style="stop-color:#B0B0B0"/>
<stop offset="0.7925" style="stop-color:#929292"/>
<stop offset="0.92" style="stop-color:#6D6D6D"/>
<stop offset="1" style="stop-color:#525252"/>
</linearGradient>
<path fill="url(#SVGID_4_)" d="M12.257,21.537c2.205-2.666,6.469-6.498,13.36-7.812v-3.03h-13.36V21.537z"/>
<polygon points="4.791,13.529 4.783,13.492 4.765,13.479 4.437,12.237 4.191,11.343 4.197,11.334 4.187,11.306 6.434,7.957   7.913,7.406 9.222,6.892 9.238,6.909 9.242,6.906 9.246,6.914 9.279,6.943 9.271,6.929 14.467,11.503 25.228,20.874 29.524,29.382   20.367,26.587 "/>
<path d="M20.135,27.014L4.486,13.896l-0.121-0.1L4.36,13.772l-0.013-0.009l-0.369-1.399L3.67,11.251l0.005-0.008l-0.006-0.017  l2.455-3.661l1.613-0.602l1.583-0.62l0.015,0.013l0.168-0.067l0.133,0.33l5.143,4.526L25.61,20.58l4.837,9.584L20.135,27.014  L20.135,27.014z M20.596,26.163l8.001,2.438l-3.754-7.431l-10.689-9.312L9.152,7.454L9.136,7.461l-0.02-0.017L8.079,7.85  L6.741,8.351L4.703,11.39l0.011,0.039l-0.007,0.008l0.188,0.68l0.283,1.082l0.024,0.016l0.014,0.055L20.596,26.163L20.596,26.163z"/>
<polygon fill="#808080" points="28.255,28.407 21.019,26.028 5.452,13.015 4.974,11.273 6.759,8.598 8.978,7.73 24.607,21.463 "/>
<polygon fill="#B3B3B3" points="21.02,26.037 23.387,25.326 24.82,22.713 24.488,21.494 9.232,7.962 9.587,9.163 7.843,11.903   5.431,12.975 "/>
<polygon fill="#F2F2F2" points="23.465,25.257 7.785,11.913 9.558,9.186 24.841,22.83 "/>
<polygon fill="#808080" points="24.833,22.834 9.6,9.213 9.019,7.758 24.611,21.488 "/>
<polygon fill="#4D4D4D" points="7.814,11.946 5.431,12.975 4.972,11.242 6.759,8.579 8.996,7.741 9.611,9.195 "/>
</svg>
