/* XPM */
static char * hex_ico_xpm[] = {
"69 60 257 2",
"  	c None",
". 	c #FE5858",
"+ 	c #FF6262",
"@ 	c #FF6C6B",
"# 	c #FF7272",
"$ 	c #FF7476",
"% 	c #FF6B6C",
"& 	c #FF6462",
"* 	c #FE585A",
"= 	c #FE4F4E",
"- 	c #FD4545",
"; 	c #FC3C3C",
"> 	c #FA3534",
", 	c #F82E2E",
"' 	c #F62828",
") 	c #FE5758",
"! 	c #FF6564",
"~ 	c #FF7E7E",
"{ 	c #FF8A8A",
"] 	c #FF8E8B",
"^ 	c #FF7E81",
"/ 	c #FF6465",
"( 	c #FE4B4B",
"_ 	c #FD4242",
": 	c #FB3839",
"< 	c #F93231",
"[ 	c #F72A2B",
"} 	c #F42526",
"| 	c #FF6161",
"1 	c #FF7070",
"2 	c #FF8585",
"3 	c #FF9497",
"4 	c #FFA3A3",
"5 	c #FFA7A7",
"6 	c #FF9494",
"7 	c #FF8282",
"8 	c #FE5151",
"9 	c #FD4747",
"0 	c #FC3C3B",
"a 	c #FA3333",
"b 	c #F82D2D",
"c 	c #F52727",
"d 	c #FE5757",
"e 	c #FF6767",
"f 	c #FF7D7A",
"g 	c #FF9292",
"h 	c #FFAAA7",
"i 	c #FFBDBD",
"j 	c #FFC7C5",
"k 	c #FFA7AA",
"l 	c #FF7D7D",
"m 	c #FE4A4A",
"n 	c #FC3F3F",
"o 	c #FA3536",
"p 	c #F22223",
"q 	c #FE5A5A",
"r 	c #FF6B6B",
"s 	c #FF8281",
"t 	c #FF9B9B",
"u 	c #FFB9B7",
"v 	c #FFD4D5",
"w 	c #FFE8E8",
"x 	c #FFD5D4",
"y 	c #FFB7B7",
"z 	c #FC4140",
"A 	c #FB3737",
"B 	c #F82F2F",
"C 	c #F32323",
"D 	c #FE5B5A",
"E 	c #FFD9D9",
"F 	c #FFF1F1",
"G 	c #FFD9D5",
"H 	c #FF8582",
"I 	c #FF6C6C",
"J 	c #FC4141",
"K 	c #EE1F1F",
"L 	c #FE4A4B",
"M 	c #FE5857",
"N 	c #FF6969",
"O 	c #FF7D7E",
"P 	c #FF9797",
"Q 	c #FFACAC",
"R 	c #FFC2C5",
"S 	c #FFD0CE",
"T 	c #FFC5C5",
"U 	c #FFACAF",
"V 	c #FA3636",
"W 	c #F22323",
"X 	c #EE1E1E",
"Y 	c #FC3D3C",
"Z 	c #FE5454",
"` 	c #FF6261",
" .	c #FF7474",
"..	c #FF878A",
"+.	c #FFAFAF",
"@.	c #FFAAAA",
"#.	c #FF9A9A",
"$.	c #FF8787",
"%.	c #FE5353",
"&.	c #FD4848",
"*.	c #FC3D3D",
"=.	c #FA3434",
"-.	c #F22222",
";.	c #ED1E1E",
">.	c #E71A19",
",.	c #FB3A3A",
"'.	c #FD4442",
").	c #FE4D4E",
"!.	c #FF7676",
"~.	c #FF8F8F",
"{.	c #FF9294",
"].	c #FF8587",
"^.	c #FF7876",
"/.	c #FE4E4D",
"(.	c #F93232",
"_.	c #F72B2B",
":.	c #F52626",
"<.	c #F12121",
"[.	c #EC1C1D",
"}.	c #E61919",
"|.	c #FC3E3E",
"1.	c #FE5150",
"2.	c #FE5B5B",
"3.	c #FF6567",
"4.	c #FF7878",
"5.	c #FF7A7A",
"6.	c #FF7678",
"7.	c #FF6565",
"8.	c #FE5051",
"9.	c #F62829",
"0.	c #F32424",
"a.	c #EF1F1F",
"b.	c #EA1C1C",
"c.	c #E21818",
"d.	c #D71414",
"e.	c #F82B2B",
"f.	c #FB3938",
"g.	c #FC4040",
"h.	c #FE5050",
"i.	c #FE5F5E",
"j.	c #FF6464",
"k.	c #FE5F5F",
"l.	c #FE4F50",
"m.	c #FB3939",
"n.	c #E81A1A",
"o.	c #DF1716",
"p.	c #D41313",
"q.	c #F82E2D",
"r.	c #FC403F",
"s.	c #FD4745",
"t.	c #FE5354",
"u.	c #FE5453",
"v.	c #EF2020",
"w.	c #EB1C1C",
"x.	c #E51818",
"y.	c #DA1515",
"z.	c #CF1212",
"A.	c #C20F0F",
"B.	c #F12122",
"C.	c #F42525",
"D.	c #F72929",
"E.	c #FB3837",
"F.	c #FC3C3D",
"G.	c #FD4445",
"H.	c #FD4141",
"I.	c #FA3233",
"J.	c #F72829",
"K.	c #DF1717",
"L.	c #D61313",
"M.	c #C91010",
"N.	c #BC0D0D",
"O.	c #F42626",
"P.	c #F93130",
"Q.	c #FB3838",
"R.	c #FB3B3B",
"S.	c #FB3738",
"T.	c #F93131",
"U.	c #EA1B1B",
"V.	c #E31818",
"W.	c #F12222",
"X.	c #F72B2A",
"Y.	c #F93030",
"Z.	c #F42424",
"`.	c #EE1E1F",
" +	c #E51919",
".+	c #DC1616",
"++	c #D31313",
"@+	c #C61010",
"#+	c #F32423",
"$+	c #F82C2C",
"%+	c #F82C2D",
"&+	c #F72A29",
"*+	c #EA1B1C",
"=+	c #DE1616",
"-+	c #CA1111",
";+	c #BE0E0E",
">+	c #ED1D1D",
",+	c #F52726",
"'+	c #E41818",
")+	c #D61413",
"!+	c #CB1111",
"~+	c #C10F0F",
"{+	c #B50C0C",
"]+	c #E61A19",
"^+	c #EC1D1D",
"/+	c #EE1F1E",
"(+	c #EF1F20",
"_+	c #EB1B1B",
":+	c #E11818",
"<+	c #DB1515",
"[+	c #B70C0C",
"}+	c #DD1616",
"|+	c #E71919",
"1+	c #EA1A1B",
"2+	c #EA1C1B",
"3+	c #EC1C1C",
"4+	c #EC1D1C",
"5+	c #D71415",
"6+	c #D11212",
"7+	c #C91110",
"8+	c #C00E0F",
"9+	c #AC0A0A",
"0+	c #E01717",
"a+	c #D71514",
"b+	c #CD1111",
"c+	c #C5100F",
"d+	c #BD0E0E",
"e+	c #AB0A0A",
"f+	c #D01212",
"g+	c #D61414",
"h+	c #D81515",
"i+	c #C00E0E",
"j+	c #B90D0D",
"k+	c #B10B0B",
"l+	c #A80909",
"m+	c #A10707",
"n+	c #C40F0F",
"o+	c #CE1112",
"p+	c #CE1212",
"q+	c #C71010",
"r+	c #B80D0D",
"s+	c #B20B0B",
"t+	c #A50808",
"u+	c #9E0707",
"v+	c #BB0D0D",
"w+	c #B00B0B",
"x+	c #A60909",
"y+	c #A00707",
"z+	c #980606",
"A+	c #920405",
"B+	c #AA090A",
"C+	c #AD0A0A",
"D+	c #AE0A0A",
"E+	c #AB0A09",
"F+	c #A40808",
"G+	c #930505",
"H+	c #8B0304",
"                                                      . + @ # $ # % & * = - ; > , '                                                       ",
"                                                    ) ! # ~ { ] { ^ # / ) ( _ : < [ }                                                     ",
"                                                    | 1 2 3 4 5 4 6 7 1 | 8 9 0 a b c                                                     ",
"                                                  d e f g h i j i k g l e d m n o , ' p                                                   ",
"                                                  q r s t u v w x y t 7 @ q ( z A B ' C                                                   ",
"                                                ( D % 7 t u E F G u t H I D ( J A B ' C K                                                 ",
"                                                L M N O P Q R S T U 6 ~ N d ( n V , ' W X                                                 ",
"                                              Y 9 Z `  ...t 5 +.@.#.$. .+ %.&.*.=.b c -.;.>.                                              ",
"                                              ,.'.).D e !.2 ~.{.~.].^.e q /.'.,.(._.:.<.[.}.                                              ",
"                                            B V |.9 1.2.3.1 4.5.6.1 7.2.8.9 |.V B 9.0.a.b.c.d.                                            ",
"                                            e.(.f.g.&.h.. i.+ 7.j.k.) l.&.g.m.(.e.c -.;.n.o.p.                                            ",
"                                          0.' q.a m.r.s.( h.t.Z u.h.( - r.m.a q.' 0.v.w.x.y.z.A.                                          ",
"                                          B.C.D., a E.F.J G.9 &.9 - H.*.E.I., J.C.B.;.n.K.L.M.N.                                          ",
"                                            -.O.9.b P.=.Q.R.; F.; R.S.> T.b D.O.-.X U.V.y.z.A.                                            ",
"                                            K W.C.' X.b Y.(.a a a (.Y.b [ ' Z.-.`.b. +.+++@+N.                                            ",
"                                              ;.<.#+:.' D.e.$+%+$+e.&+' O.C <.X *+}.=+p.-+;+                                              ",
"                                              U.>+a.<.C 0.O.,+c c O.Z.W B.a.>+U.'+=+)+!+~+{+                                              ",
"                                                ]+U.^+/+v.<.<.W.B.<.(+`.>+_+>.:+<+p.!+~+[+                                                ",
"                                                }+V.|+1+2+3+^+^+4+3+_+1+}.c.=+5+6+7+8+[+9+                                                ",
"                                                  d..+0+c.'+}.}. +x.c.0+.+a+p.b+c+d+{+e+                                                  ",
"                                                  b+f+p.g+h+y.y.y.h+g+p.6+!+@+i+j+k+l+m+                                                  ",
"                                                    n+@+-+!+o+p+p+b+-+q+n+;+r+s+e+t+u+                                                    ",
"                                                    {+j+v+d+;+i+i+d+N.j+{+w+e+x+y+z+A+                                                    ",
"                                                      B+C+D+w+w+w+D+C+E+x+F+u+z+G+H+                                                      ",
"                                                      . + @ # $ # % & * = - ; > , '                                                       ",
"                                                    ) ! # ~ { ] { ^ # / ) ( _ : < [ }                                                     ",
"                                                    | 1 2 3 4 5 4 6 7 1 | 8 9 0 a b c                                                     ",
"                                                  d e f g h i j i k g l e d m n o , ' p                                                   ",
"                                                  q r s t u v w x y t 7 @ q ( z A B ' C                                                   ",
"                                                ( D % 7 t u E F G u t H I D ( J A B ' C K                                                 ",
"                                                L M N O P Q R S T U 6 ~ N d ( n V , ' W X                                                 ",
"                                              Y 9 Z `  ...t 5 +.@.#.$. .+ %.&.*.=.b c -.;.>.                                              ",
"                                              ,.'.).D e !.2 ~.{.~.].^.e q /.'.,.(._.:.<.[.}.                                              ",
"                                            B V |.9 1.2.3.1 4.5.6.1 7.2.8.9 |.V B 9.0.a.b.c.d.                                            ",
"                                            e.(.f.g.&.h.. i.+ 7.j.k.) l.&.g.m.(.e.c -.;.n.o.p.                                            ",
"                                          0.' q.a m.r.s.( h.t.Z u.h.( - r.m.a q.' 0.v.w.x.y.z.A.                                          ",
"            . + @ # $ # % & * = - ; > , ' B.C.D., a E.F.J G.9 &.9 - H.*.E.I., J.C.B.;.n.K.L.M.N.. + @ # $ # % & * = - ; > , '             ",
"          ) ! # ~ { ] { ^ # / ) ( _ : < [ } -.O.9.b P.=.Q.R.; F.; R.S.> T.b D.O.-.X U.V.y.z.A.) ! # ~ { ] { ^ # / ) ( _ : < [ }           ",
"          | 1 2 3 4 5 4 6 7 1 | 8 9 0 a b c K W.C.' X.b Y.(.a a a (.Y.b [ ' Z.-.`.b. +.+++@+N.| 1 2 3 4 5 4 6 7 1 | 8 9 0 a b c           ",
"        d e f g h i j i k g l e d m n o , ' p ;.<.#+:.' D.e.$+%+$+e.&+' O.C <.X *+}.=+p.-+;+d e f g h i j i k g l e d m n o , ' p         ",
"        q r s t u v w x y t 7 @ q ( z A B ' C U.>+a.<.C 0.O.,+c c O.Z.W B.a.>+U.'+=+)+!+~+{+q r s t u v w x y t 7 @ q ( z A B ' C         ",
"      ( D % 7 t u E F G u t H I D ( J A B ' C K ]+U.^+/+v.<.<.W.B.<.(+`.>+_+>.:+<+p.!+~+[+( D % 7 t u E F G u t H I D ( J A B ' C K       ",
"      L M N O P Q R S T U 6 ~ N d ( n V , ' W X }+V.|+1+2+3+^+^+4+3+_+1+}.c.=+5+6+7+8+[+9+L M N O P Q R S T U 6 ~ N d ( n V , ' W X       ",
"    Y 9 Z `  ...t 5 +.@.#.$. .+ %.&.*.=.b c -.;.>.d..+0+c.'+}.}. +x.c.0+.+a+p.b+c+d+{+e+Y 9 Z `  ...t 5 +.@.#.$. .+ %.&.*.=.b c -.;.>.    ",
"    ,.'.).D e !.2 ~.{.~.].^.e q /.'.,.(._.:.<.[.}.b+f+p.g+h+y.y.y.h+g+p.6+!+@+i+j+k+l+m+,.'.).D e !.2 ~.{.~.].^.e q /.'.,.(._.:.<.[.}.    ",
"  B V |.9 1.2.3.1 4.5.6.1 7.2.8.9 |.V B 9.0.a.b.c.d.n+@+-+!+o+p+p+b+-+q+n+;+r+s+e+t+u+B V |.9 1.2.3.1 4.5.6.1 7.2.8.9 |.V B 9.0.a.b.c.d.  ",
"  e.(.f.g.&.h.. i.+ 7.j.k.) l.&.g.m.(.e.c -.;.n.o.p.{+j+v+d+;+i+i+d+N.j+{+w+e+x+y+z+A+e.(.f.g.&.h.. i.+ 7.j.k.) l.&.g.m.(.e.c -.;.n.o.p.  ",
"0.' q.a m.r.s.( h.t.Z u.h.( - r.m.a q.' 0.v.w.x.y.z.A.B+C+D+w+w+w+D+C+E+x+F+u+z+G+H+0.' q.a m.r.s.( h.t.Z u.h.( - r.m.a q.' 0.v.w.x.y.z.A.",
"B.C.D., a E.F.J G.9 &.9 - H.*.E.I., J.C.B.;.n.K.L.M.N.                              B.C.D., a E.F.J G.9 &.9 - H.*.E.I., J.C.B.;.n.K.L.M.N.",
"  -.O.9.b P.=.Q.R.; F.; R.S.> T.b D.O.-.X U.V.y.z.A.                                  -.O.9.b P.=.Q.R.; F.; R.S.> T.b D.O.-.X U.V.y.z.A.  ",
"  K W.C.' X.b Y.(.a a a (.Y.b [ ' Z.-.`.b. +.+++@+N.                                  K W.C.' X.b Y.(.a a a (.Y.b [ ' Z.-.`.b. +.+++@+N.  ",
"    ;.<.#+:.' D.e.$+%+$+e.&+' O.C <.X *+}.=+p.-+;+                                      ;.<.#+:.' D.e.$+%+$+e.&+' O.C <.X *+}.=+p.-+;+    ",
"    U.>+a.<.C 0.O.,+c c O.Z.W B.a.>+U.'+=+)+!+~+{+                                      U.>+a.<.C 0.O.,+c c O.Z.W B.a.>+U.'+=+)+!+~+{+    ",
"      ]+U.^+/+v.<.<.W.B.<.(+`.>+_+>.:+<+p.!+~+[+                                          ]+U.^+/+v.<.<.W.B.<.(+`.>+_+>.:+<+p.!+~+[+      ",
"      }+V.|+1+2+3+^+^+4+3+_+1+}.c.=+5+6+7+8+[+9+                                          }+V.|+1+2+3+^+^+4+3+_+1+}.c.=+5+6+7+8+[+9+      ",
"        d..+0+c.'+}.}. +x.c.0+.+a+p.b+c+d+{+e+                                              d..+0+c.'+}.}. +x.c.0+.+a+p.b+c+d+{+e+        ",
"        b+f+p.g+h+y.y.y.h+g+p.6+!+@+i+j+k+l+m+                                              b+f+p.g+h+y.y.y.h+g+p.6+!+@+i+j+k+l+m+        ",
"          n+@+-+!+o+p+p+b+-+q+n+;+r+s+e+t+u+                                                  n+@+-+!+o+p+p+b+-+q+n+;+r+s+e+t+u+          ",
"          {+j+v+d+;+i+i+d+N.j+{+w+e+x+y+z+A+                                                  {+j+v+d+;+i+i+d+N.j+{+w+e+x+y+z+A+          ",
"            B+C+D+w+w+w+D+C+E+x+F+u+z+G+H+                                                      B+C+D+w+w+w+D+C+E+x+F+u+z+G+H+            "};
