/* XPM */
static char * about_icon_xpm[] = {
"54 47 223 2",
"  	c None",
". 	c #E90707",
"+ 	c #E90D0D",
"@ 	c #EA1212",
"# 	c #E80303",
"$ 	c #E80101",
"% 	c #E90808",
"& 	c #E90F0F",
"* 	c #E90B0B",
"= 	c #EA1617",
"- 	c #EC2929",
"; 	c #ED3635",
"> 	c #ED3636",
", 	c #EA1616",
"' 	c #E80202",
") 	c #E80505",
"! 	c #E90C0C",
"~ 	c #EA1414",
"{ 	c #EC3030",
"] 	c #EF5252",
"^ 	c #F26A6B",
"/ 	c #F26B6A",
"( 	c #EF5251",
"_ 	c #EA1313",
": 	c #E80606",
"< 	c #E80404",
"[ 	c #E90909",
"} 	c #EA1111",
"| 	c #E90B0C",
"1 	c #EB2020",
"2 	c #EF4A4A",
"3 	c #F37C7D",
"4 	c #F7A9A8",
"5 	c #F7A8A8",
"6 	c #F37C7C",
"7 	c #EF4949",
"8 	c #E91010",
"9 	c #EA1818",
"0 	c #EB2626",
"a 	c #F05555",
"b 	c #F59292",
"c 	c #FBD4D4",
"d 	c #F59192",
"e 	c #F05454",
"f 	c #EB2525",
"g 	c #EA1A1A",
"h 	c #EB2121",
"i 	c #EF4B4B",
"j 	c #F4807F",
"k 	c #F8AEAE",
"l 	c #F8ADAD",
"m 	c #F37F7F",
"n 	c #EF4B4A",
"o 	c #EB2424",
"p 	c #E90606",
"q 	c #EA1515",
"r 	c #ED3333",
"s 	c #F05655",
"t 	c #F27070",
"u 	c #F05556",
"v 	c #ED3232",
"w 	c #EB1C1C",
"x 	c #EC2828",
"y 	c #EA1919",
"z 	c #EC2C2C",
"A 	c #ED3A3A",
"B 	c #ED3A39",
"C 	c #EB1F1F",
"D 	c #ED3737",
"E 	c #E80102",
"F 	c #E90F0E",
"G 	c #EB2323",
"H 	c #EE3E3E",
"I 	c #EB1D1C",
"J 	c #ED3535",
"K 	c #EE4444",
"L 	c #E90A0A",
"M 	c #EA1110",
"N 	c #EC2F2F",
"O 	c #ED3C3C",
"P 	c #EA1717",
"Q 	c #EC2B2B",
"R 	c #ED3434",
"S 	c #EE4040",
"T 	c #EF4D4D",
"U 	c #E90E0E",
"V 	c #EA1B1B",
"W 	c #EC2A2A",
"X 	c #EF4A4B",
"Y 	c #EB1B1B",
"Z 	c #EC2D2D",
"` 	c #EE3F3F",
" .	c #F05656",
"..	c #EB2222",
"+.	c #ED3233",
"@.	c #EE4242",
"#.	c #EF4C4C",
"$.	c #F05757",
"%.	c #EC2E2E",
"&.	c #ED3A3B",
"*.	c #EE4141",
"=.	c #EE4848",
"-.	c #EF5151",
";.	c #F05B5B",
">.	c #F16565",
",.	c #EE4142",
"'.	c #EE4545",
").	c #EF5150",
"!.	c #F05858",
"~.	c #F16161",
"{.	c #F26A6A",
"].	c #EE4243",
"^.	c #EF5353",
"/.	c #F37777",
"(.	c #F37676",
"_.	c #F05A5A",
":.	c #F48384",
"<.	c #F8B5B5",
"[.	c #F8B4B5",
"}.	c #F48383",
"|.	c #EB2221",
"1.	c #F59291",
"2.	c #FBD3D3",
"3.	c #FBD2D3",
"4.	c #F59191",
"5.	c #EE4747",
"6.	c #F37978",
"7.	c #F7A1A1",
"8.	c #F6A1A1",
"9.	c #F37877",
"0.	c #EE4746",
"a.	c #E90809",
"b.	c #EA1A1B",
"c.	c #F16464",
"d.	c #EF4C4D",
"e.	c #EC3131",
"f.	c #ED3939",
"g.	c #EB1E1E",
"h.	c #ED3637",
"i.	c #E90C0D",
"j.	c #EC2F2E",
"k.	c #ED3D3D",
"l.	c #EB1D1D",
"m.	c #EC2727",
"n.	c #EA1817",
"o.	c #EA1C1C",
"p.	c #F16262",
"q.	c #ED3B3B",
"r.	c #EB1E1D",
"s.	c #ED3838",
"t.	c #EE4646",
"u.	c #EB2727",
"v.	c #F05959",
"w.	c #EA1918",
"x.	c #E91111",
"y.	c #F4898A",
"z.	c #F7A2A2",
"A.	c #F58D8D",
"B.	c #F05E5E",
"C.	c #F7A1A2",
"D.	c #F48484",
"E.	c #EC2A29",
"F.	c #F26F6E",
"G.	c #F8AFAF",
"H.	c #FCDFE0",
"I.	c #F27374",
"J.	c #EA1010",
"K.	c #ED3536",
"L.	c #F37B7B",
"M.	c #F9BCBC",
"N.	c #FCDEDE",
"O.	c #F7A7A7",
"P.	c #F16768",
"Q.	c #F16767",
"R.	c #F6A09F",
"S.	c #FAC3C3",
"T.	c #F7A4A4",
"U.	c #F26C6C",
"V.	c #F27272",
"W.	c #F7AAAA",
"X.	c #F9C2C2",
"Y.	c #F69999",
"Z.	c #F16160",
"`.	c #F48080",
" +	c #F27171",
".+	c #EF4F4F",
"++	c #EC2B2C",
"@+	c #F37474",
"#+	c #EE3C3C",
"$+	c #EE4645",
"%+	c #ED3131",
"&+	c #EC3132",
"*+	c #EE3D3E",
"=+	c #E90708",
"-+	c #EE4343",
";+	c #EE4949",
">+	c #EF4E4D",
",+	c #F26D6D",
"'+	c #E90807",
")+	c #E80302",
"!+	c #EF5050",
"~+	c #F16969",
"{+	c #EE3D3D",
"]+	c #EF4E4E",
"^+	c #EE3E3D",
"/+	c #E9090A",
"(+	c #EA1211",
"_+	c #EA1415",
":+	c #EB1F1E",
"<+	c #F05C5C",
"[+	c #F05D5D",
"}+	c #F16666",
"|+	c #EC2D2E",
"1+	c #F15F5F",
"2+	c #ED3C3D",
"3+	c #F16364",
"4+	c #EF4E4F",
"5+	c #EF5051",
"6+	c #F37979",
"7+	c #EF4C4B",
"8+	c #F16263",
"9+	c #F27474",
"0+	c #F37A7A",
"                                          . + @ @ + . # $ $ # % &                                           ",
"                                        * = - ; > - , % # $ ' ) ! @                                         ",
"                                        ~ { ] ^ / ( { _ : ' $ < [ }                                         ",
"                                      | 1 2 3 4 5 6 7 1 [ # $ # % 8 9                                       ",
"                                      * 0 a b c c d e f * # $ # % & g                                       ",
"                                    # [ h i j k l m n h [ # $ # % 8 g o                                     ",
"                                    ' p q r s t t u v q : ' $ < [ } w x                                     ",
"                                  $ $ # [ y z A B z 9 [ # $ ' ) * ~ C z D                                   ",
"                                  # $ ' < % & q q & % < E $ # % F 9 G { H                                   ",
"                                  p # $ $ # < ) ) < # $ $ # p * _ I x J K                                   ",
"                                  L : # $ $ $ ' ' $ $ $ # p L M y G N O 2                                   ",
"                                    * . < # ' ' ' ' # < . * 8 P 1 Q D K                                     ",
"                                    } + [ . p ) ) p . [ + @ 9 1 - R S T                                     ",
"                                      q } U + ! ! + U } q V h W r H X                                       ",
"                                      C Y 9 , q q , 9 Y 1 0 Z J ` 2  .                                      ",
"                                        x o ..h 1 ..o x z +.A @.#.$.                                        ",
"                                        J v { N %.{ v > &.*.=.-.;.>.                                        ",
"                                          @.` H H ` ,.'.2 ).!.~.{.                                          ",
"                                          ].S ` ` S *.K =.T ^.;.>.                                          ",
"                                          [ } 9 9 } [ < ' $ # . U                                           ",
"                                        ! V { ` ` { V L < $ ' ) * @                                         ",
"                                        P > ;./.(._.; , p ' $ < [ }                                         ",
"                                      | ..T :.<.[.}.T |.[ # $ # % 8 9                                       ",
"                                      * 0 a 1.2.3.4.e f * # $ # % & g                                       ",
"                                    # [ C 5.6.7.8.9.0.C a.# $ # % 8 b.f                                     ",
"                                    ' ) @ Z T c.c.d.Z @ ) ' $ < L @ w -                                     ",
"                                  ' $ # % ~ f e.e.f ~ % # $ ' : ! q C z f.                                  ",
"                                  < $ $ # p * 8 8 * p # $ $ < % & 9 o e.`                                   ",
"          % U 8 U [ ) ' $ ' ) * U . # $ $ ' # < < # ' $ $ # . ! ~ g.- h.'.f [ U 8 + % < ' $ # p i.          ",
"        ! y x j.- V ! ) ' $ # % 8 ! p # ' $ $ $ $ $ $ ' # p * @ g o { k.@.& l.W %.m.n.L < $ $ < L }         ",
"        o.f.a p.$.q.r.L # $ ' p + @ ! % ) # ' ' ' ' # ) % ! @ y ..z s.t.u.h ` v.p.] J w.% # $ # . &         ",
"      x.%._.y.z.A.B.e.} ) $ ' ) ! q ~ U * % . p p . % * U _ g h Q > @.'., > c.4.C.D.a E.+ < $ ' p + ,       ",
"      ~ f.F.G.H.[.I.O , : ' $ ) * ~ w P _ 8 U + + U J._ P l.G z K.*.T f g @.L.M.N.O.P.r } < $ ' : ! ,       ",
"    ) @ J Q.R.S.T.U.s.~ ) ' ' ) * ~ C ..g.g 9 P P 9 g g...x N s.@.T i % 9 H V.W.X.Y.Z.{ 8 < $ ' p + , h     ",
"    < ! f 2 F.`. +T x + < $ ' p ! q h z W m.o G G o u.W N J O '..+_.f < 8 ++( @+`.^ '.h L # $ ' . U 9 G     ",
"  $ ' p @ m.#+$+H - ~ . ' $ # . U 9 o %+s.J r &+e.r J f.*+K i e B.!.' # =+, z ` '.A f 8 ) ' $ # % 8 g 0 R   ",
"  ' $ # p U P V 9 & . # $ ' < L @ Y m.J -+'.@.*.*.@.'.;+>+e ;.c.,+Q $ $ # % 8 w.V , + : # $ ' ) * _ g.W s.  ",
"'+< $ $ ' < : . p < )+$ $ # . U , 1 Z q.2 ] !+.+.+!+]  .;.~.~+ +U.% # $ $ # ) p . : < ' $ ' < % & 9 G N {+#.",
"* . # ' $ $ ' ' ' $ $ ' # . ! _ w u.r *.]+                        L p # $ $ $ ' ' ' $ $ ' < . + ~ g.- > K !+",
"  ! % < # ' $ $ $ ' # < . ! @ y G %.q.7                             * . < ' ' $ $ $ ' # ) % + _ V f e.^+#.  ",
"  } U L . ) < < < ) . /++ _ y ..z D K !+                            } + [ . ) < < < ) . L U ~ V o %.A 5.-.  ",
"    , (+U ! L L L ! U } , w G z > *.]+                                q } U * L L * ! U @ P l.o %.s.K -.    ",
"    g.Y 9 q _ _ _ q P V 1 0 %.D ,.T !.                                g.b.P _+_ _ _ q 9 w h x { f.K !+v.    ",
"      m.G 1 :+g.g.1 G m.z r q.K ]+_.                                    0 G 1 g.g.C h o x %.R O t.-.<+      ",
"      r e.%.z Q z %.e.J A *.7 ] [+}+                                    r { |+z Q z %.e.> q.@.i e 1+Q.      ",
"        S k.q.A q.k.S K 2 !+!.p.U.                                        ` 2+q.A q.{+*.'.i ] _.3+,+        ",
"        4+]+#.i #.T 5+a _.~.~+V.6+                                        .+T 7+i #.]+-. .<+8+^ 9+0+        "};
