/* XPM */
static char * drop_small_xpm[] = {
"13 132 587 2",
"  	c None",
". 	c #0D0D0D",
"+ 	c #0E0E0E",
"@ 	c #0F0F0F",
"# 	c #0C0C0C",
"$ 	c #101010",
"% 	c #131313",
"& 	c #111111",
"* 	c #1F1F1F",
"= 	c #202021",
"- 	c #0A0A0A",
"; 	c #191819",
"> 	c #191A1A",
", 	c #070707",
"' 	c #090909",
") 	c #0B0B0B",
"! 	c #0E0D0E",
"~ 	c #060606",
"{ 	c #080808",
"] 	c #0B0C0C",
"^ 	c #050505",
"/ 	c #060505",
"( 	c #030303",
"_ 	c #040404",
": 	c #040405",
"< 	c #CB22C8",
"[ 	c #D92AD5",
"} 	c #DE30DC",
"| 	c #E030DE",
"1 	c #C41FC2",
"2 	c #D828D5",
"3 	c #E534E2",
"4 	c #EE47EC",
"5 	c #EE4AEC",
"6 	c #C920C6",
"7 	c #DC2DD9",
"8 	c #EC3EE9",
"9 	c #FCA7FA",
"0 	c #FCADFC",
"a 	c #B117AE",
"b 	c #C920C4",
"c 	c #DA2BD7",
"d 	c #E93BE6",
"e 	c #F873F6",
"f 	c #F881F7",
"g 	c #AA16A7",
"h 	c #C21DBD",
"i 	c #D326D0",
"j 	c #E838E6",
"k 	c #E938E6",
"l 	c #860E84",
"m 	c #9F139D",
"n 	c #B419B1",
"o 	c #D325D0",
"p 	c #D829D5",
"q 	c #D82AD5",
"r 	c #780C76",
"s 	c #8F108E",
"t 	c #A414A2",
"u 	c #B418B1",
"v 	c #BD1DBD",
"w 	c #7A0D7A",
"x 	c #8F108C",
"y 	c #9D139B",
"z 	c #A815A5",
"A 	c #AD17AA",
"B 	c #650A64",
"C 	c #770C75",
"D 	c #840E82",
"E 	c #8E108C",
"F 	c #941192",
"G 	c #5E095D",
"H 	c #6B0A67",
"I 	c #730C71",
"J 	c #440742",
"K 	c #4F084E",
"L 	c #550855",
"M 	c #570858",
"N 	c #590958",
"O 	c #370536",
"P 	c #3B063A",
"Q 	c #3E063D",
"R 	c #3E063E",
"S 	c #5D22CB",
"T 	c #672AD8",
"U 	c #6C30DE",
"V 	c #6E30E0",
"W 	c #591FC4",
"X 	c #6628D8",
"Y 	c #7234E5",
"Z 	c #8147EE",
"` 	c #814AEE",
" .	c #5B20C9",
"..	c #6A2DDB",
"+.	c #7B3EEC",
"@.	c #C5A7FC",
"#.	c #C9ADFD",
"$.	c #4D17B1",
"%.	c #5B20C7",
"&.	c #682BDA",
"*.	c #783BE9",
"=.	c #A673F8",
"-.	c #A681F9",
";.	c #4A16AA",
">.	c #571DBF",
",.	c #6226D3",
"'.	c #7638E9",
").	c #380E86",
"!.	c #44139F",
"~.	c #4F19B4",
"{.	c #6225D3",
"].	c #6629D8",
"^.	c #662AD8",
"/.	c #310C78",
"(.	c #3C108F",
"_.	c #4614A4",
":.	c #4E18B4",
"<.	c #541DBF",
"[.	c #330D7C",
"}.	c #3C108E",
"|.	c #43139D",
"1.	c #4815A8",
"2.	c #4C17AD",
"3.	c #2A0A65",
"4.	c #310C77",
"5.	c #380E84",
"6.	c #3F1194",
"7.	c #27095E",
"8.	c #2C0A69",
"9.	c #300C73",
"0.	c #1C0743",
"a.	c #20084F",
"b.	c #230855",
"c.	c #240859",
"d.	c #250959",
"e.	c #170537",
"f.	c #19063B",
"g.	c #1A063E",
"h.	c #1A063F",
"i.	c #2258CB",
"j.	c #2A62D8",
"k.	c #2F68DE",
"l.	c #3068E0",
"m.	c #1F54C4",
"n.	c #295FD8",
"o.	c #356DE5",
"p.	c #477CEE",
"q.	c #477FEE",
"r.	c #2055C9",
"s.	c #2D64DB",
"t.	c #3E75EC",
"u.	c #A7C2FC",
"v.	c #ADC6FD",
"w.	c #1848B1",
"x.	c #2055C7",
"y.	c #2B63DA",
"z.	c #3B72E9",
"A.	c #7A9DF8",
"B.	c #7AA7F9",
"C.	c #1645AA",
"D.	c #1D50BF",
"E.	c #265CD3",
"F.	c #3870E9",
"G.	c #0E3486",
"H.	c #133F9F",
"I.	c #194BB4",
"J.	c #2960D8",
"K.	c #2962D8",
"L.	c #0C2E78",
"M.	c #10388F",
"N.	c #1442A4",
"O.	c #184AB4",
"P.	c #1C50BF",
"Q.	c #0D307C",
"R.	c #10388E",
"S.	c #133E9D",
"T.	c #1544A8",
"U.	c #1746AD",
"V.	c #0A2765",
"W.	c #0C2E77",
"X.	c #0E3484",
"Y.	c #113A94",
"Z.	c #09245E",
"`.	c #0B2869",
" +	c #0C2C73",
".+	c #071A43",
"++	c #081E4F",
"@+	c #082055",
"#+	c #082159",
"$+	c #092259",
"%+	c #051537",
"&+	c #06173B",
"*+	c #06183E",
"=+	c #06183F",
"-+	c #22A2CB",
";+	c #2AB0D8",
">+	c #2FB6DE",
",+	c #30B6E0",
"'+	c #1F9DC4",
")+	c #29ACD8",
"!+	c #35BBE5",
"~+	c #47C7EE",
"{+	c #47C9EE",
"]+	c #20A1C9",
"^+	c #2DB2DB",
"/+	c #3EC2EC",
"(+	c #A7E7FC",
"_+	c #ADE9FD",
":+	c #188CB1",
"<+	c #209FC7",
"[+	c #2BB0DA",
"}+	c #3BC0E9",
"|+	c #7AD7F8",
"1+	c #7ADCF9",
"2+	c #1686AA",
"3+	c #1D98BF",
"4+	c #26A9D3",
"5+	c #38BFE9",
"6+	c #0E6A86",
"7+	c #137D9F",
"8+	c #198FB4",
"9+	c #26A7D3",
"0+	c #29AED8",
"a+	c #29B0D8",
"b+	c #0C5E78",
"c+	c #10718F",
"d+	c #1482A4",
"e+	c #188FB4",
"f+	c #1C98BF",
"g+	c #0D617C",
"h+	c #10718E",
"i+	c #137C9D",
"j+	c #1585A8",
"k+	c #178AAD",
"l+	c #0A4F65",
"m+	c #0C5D77",
"n+	c #0E6884",
"o+	c #10708E",
"p+	c #117594",
"q+	c #09495E",
"r+	c #0B5269",
"s+	c #0C5973",
"t+	c #073543",
"u+	c #083E4F",
"v+	c #084355",
"w+	c #084459",
"x+	c #094659",
"y+	c #052B37",
"z+	c #062E3B",
"A+	c #06303E",
"B+	c #06313F",
"C+	c #22CB98",
"D+	c #2AD9A3",
"E+	c #2FE0A9",
"F+	c #30E0AB",
"G+	c #1FC492",
"H+	c #29D5A3",
"I+	c #35E5AF",
"J+	c #47EEBC",
"K+	c #47F1BC",
"L+	c #20C996",
"M+	c #2DDCA6",
"N+	c #3EECB7",
"O+	c #A7FCE2",
"P+	c #ADFCE7",
"Q+	c #18B182",
"R+	c #20C794",
"S+	c #2BDAA5",
"T+	c #3BE9B4",
"U+	c #7AF7D2",
"V+	c #7AF9D5",
"W+	c #16AA7D",
"X+	c #1DBF8E",
"Y+	c #26D39F",
"Z+	c #38E9B3",
"`+	c #0E8662",
" @	c #139F74",
".@	c #19B485",
"+@	c #26D09F",
"@@	c #29D8A3",
"#@	c #29D9A3",
"$@	c #0C7857",
"%@	c #108F69",
"&@	c #14A478",
"*@	c #18B485",
"=@	c #1CBF8E",
"-@	c #0D7C5B",
";@	c #108F68",
">@	c #139D73",
",@	c #15A87C",
"'@	c #17AD80",
")@	c #0A6549",
"!@	c #0C7756",
"~@	c #0E8460",
"{@	c #108E68",
"]@	c #11946C",
"^@	c #095D44",
"/@	c #0B694C",
"(@	c #0C7153",
"_@	c #074331",
":@	c #084F39",
"<@	c #08553E",
"[@	c #085741",
"}@	c #095941",
"|@	c #053728",
"1@	c #063B2B",
"2@	c #063E2D",
"3@	c #063F2D",
"4@	c #37CB22",
"5@	c #40D929",
"6@	c #45E02F",
"7@	c #46E030",
"8@	c #34C41F",
"9@	c #3FD529",
"0@	c #4BE534",
"a@	c #5CEE47",
"b@	c #5CF147",
"c@	c #35C920",
"d@	c #43DC2C",
"e@	c #54EC3C",
"f@	c #B2FCA7",
"g@	c #B7FCB5",
"h@	c #2BB117",
"i@	c #35C720",
"j@	c #41DA2B",
"k@	c #51E93B",
"l@	c #8AF77A",
"m@	c #8AF981",
"n@	c #28AA16",
"o@	c #31BF1D",
"p@	c #3BD326",
"q@	c #4EE938",
"r@	c #1D860E",
"s@	c #259F13",
"t@	c #2DB419",
"u@	c #3BD026",
"v@	c #3FD829",
"w@	c #3FD929",
"x@	c #19780C",
"y@	c #208F10",
"z@	c #26A414",
"A@	c #2CB418",
"B@	c #30BF1D",
"C@	c #1A7C0D",
"D@	c #259D13",
"E@	c #27A815",
"F@	c #2AAD17",
"G@	c #16650A",
"H@	c #19770C",
"I@	c #1D840E",
"J@	c #208E10",
"K@	c #229411",
"L@	c #145D09",
"M@	c #17690A",
"N@	c #19710C",
"O@	c #0F4307",
"P@	c #114F08",
"Q@	c #125508",
"R@	c #125709",
"S@	c #135909",
"T@	c #0B3705",
"U@	c #0D3B06",
"V@	c #0D3E06",
"W@	c #0D3F06",
"X@	c #88CB22",
"Y@	c #94D929",
"Z@	c #99E02F",
"`@	c #9AE030",
" #	c #83C41F",
".#	c #93D529",
"+#	c #9FE534",
"@#	c #ACEE47",
"##	c #ACF147",
"$#	c #86C920",
"%#	c #96DC2C",
"&#	c #A7EC3C",
"*#	c #DAFCA7",
"=#	c #DDFCB5",
"-#	c #74B117",
";#	c #86C720",
">#	c #95DA2B",
",#	c #A4E93B",
"'#	c #C6F77A",
")#	c #C6F981",
"!#	c #70AA16",
"~#	c #80BF1D",
"{#	c #8FD326",
"]#	c #A2E938",
"^#	c #A3E938",
"/#	c #57860E",
"(#	c #679F13",
"_#	c #77B419",
":#	c #8FD026",
"<#	c #93D829",
"[#	c #93D929",
"}#	c #4D780C",
"|#	c #5D8F10",
"1#	c #6BA414",
"2#	c #76B418",
"3#	c #7DBF1D",
"4#	c #4E7C0D",
"5#	c #669D13",
"6#	c #6EA815",
"7#	c #72AD17",
"8#	c #41650A",
"9#	c #4D770C",
"0#	c #55840E",
"a#	c #5C8E10",
"b#	c #609411",
"c#	c #3C5D09",
"d#	c #44690A",
"e#	c #4A710C",
"f#	c #2C4307",
"g#	c #334F08",
"h#	c #365508",
"i#	c #385709",
"j#	c #395909",
"k#	c #233705",
"l#	c #263B06",
"m#	c #273E06",
"n#	c #273F06",
"o#	c #CBC822",
"p#	c #D9D729",
"q#	c #DEDE2F",
"r#	c #E0DE30",
"s#	c #C4C21F",
"t#	c #D8D229",
"u#	c #E5E234",
"v#	c #EEEC47",
"w#	c #EEEE47",
"x#	c #C9C620",
"y#	c #DCD92C",
"z#	c #ECE93C",
"A#	c #FCFAA7",
"B#	c #FCFBB5",
"C#	c #B1AE17",
"D#	c #C9C420",
"E#	c #DAD72B",
"F#	c #E9E63B",
"G#	c #F8F57A",
"H#	c #F8F781",
"I#	c #AAA716",
"J#	c #C2BD1D",
"K#	c #D3D026",
"L#	c #E8E638",
"M#	c #E9E638",
"N#	c #86840E",
"O#	c #9F9D13",
"P#	c #B4B119",
"Q#	c #D3CD26",
"R#	c #D8D529",
"S#	c #D8D729",
"T#	c #78760C",
"U#	c #8F8E10",
"V#	c #A4A214",
"W#	c #B4B118",
"X#	c #BDBD1D",
"Y#	c #7A7A0D",
"Z#	c #9D9B13",
"`#	c #A8A515",
" $	c #ADAA17",
".$	c #65640A",
"+$	c #77750C",
"@$	c #84820E",
"#$	c #8E8C10",
"$$	c #949211",
"%$	c #5E5C09",
"&$	c #6B670A",
"*$	c #736F0C",
"=$	c #444207",
"-$	c #4F4E08",
";$	c #555508",
">$	c #575609",
",$	c #595809",
"'$	c #373605",
")$	c #3B3A06",
"!$	c #3E3D06",
"~$	c #3E3E06",
"{$	c #CB5822",
"]$	c #D96229",
"^$	c #DE682F",
"/$	c #E06830",
"($	c #C4541F",
"_$	c #D85F29",
":$	c #E56D34",
"<$	c #EE7C47",
"[$	c #EE7F47",
"}$	c #C95520",
"|$	c #DC642C",
"1$	c #EC753C",
"2$	c #FCC2A7",
"3$	c #FCC6B5",
"4$	c #B14817",
"5$	c #DA632B",
"6$	c #E9723B",
"7$	c #F89D7A",
"8$	c #F8A781",
"9$	c #AA4516",
"0$	c #C2501D",
"a$	c #D35C26",
"b$	c #E87038",
"c$	c #E97038",
"d$	c #86340E",
"e$	c #9F3F13",
"f$	c #B44B19",
"g$	c #D86029",
"h$	c #D86229",
"i$	c #782E0C",
"j$	c #8F3810",
"k$	c #A44214",
"l$	c #B44A18",
"m$	c #BD501D",
"n$	c #7A300D",
"o$	c #9D3E13",
"p$	c #A84415",
"q$	c #AD4617",
"r$	c #65270A",
"s$	c #772E0C",
"t$	c #84340E",
"u$	c #8E3810",
"v$	c #943A11",
"w$	c #5E2409",
"x$	c #6B280A",
"y$	c #732C0C",
"z$	c #441A07",
"A$	c #4F1E08",
"B$	c #552008",
"C$	c #572109",
"D$	c #592209",
"E$	c #371505",
"F$	c #3B1706",
"G$	c #3E1806",
"H$	c #CB2222",
"I$	c #D92A29",
"J$	c #DE302F",
"K$	c #E03030",
"L$	c #C41F1F",
"M$	c #D82829",
"N$	c #E53434",
"O$	c #EE4747",
"P$	c #EE4A47",
"Q$	c #C92020",
"R$	c #DC2D2C",
"S$	c #EC3E3C",
"T$	c #FCA7A7",
"U$	c #FCADB5",
"V$	c #B11717",
"W$	c #DA2B2B",
"X$	c #E93B3B",
"Y$	c #F8737A",
"Z$	c #F88181",
"`$	c #AA1616",
" %	c #C21D1D",
".%	c #D32626",
"+%	c #E83838",
"@%	c #E93838",
"#%	c #860E0E",
"$%	c #9F1313",
"%%	c #B41919",
"&%	c #D32526",
"*%	c #D82929",
"=%	c #D82A29",
"-%	c #780C0C",
";%	c #8F1010",
">%	c #A41414",
",%	c #B41818",
"'%	c #BD1D1D",
")%	c #7A0D0D",
"!%	c #9D1313",
"~%	c #A81515",
"{%	c #AD1717",
"]%	c #650A0A",
"^%	c #770C0C",
"/%	c #840E0E",
"(%	c #8E1010",
"_%	c #941111",
":%	c #5E0909",
"<%	c #6B0A0A",
"[%	c #730C0C",
"}%	c #440707",
"|%	c #4F0808",
"1%	c #550808",
"2%	c #570809",
"3%	c #590909",
"4%	c #370505",
"5%	c #3B0606",
"6%	c #3E0606",
"      . + @ @ @ + .       ",
"    # + $ % % % $ + #     ",
"    # @ & * = * & @ #     ",
"  - # + & ; > ; & + # -   ",
"  - # + @ & & & @ + # -   ",
", ' ) # ! + + + ! # ) ' , ",
"~ { ' - ] # # # ] - ' { ~ ",
"  , { ' ' - - - ' ' { ,   ",
"  ^ ~ , { { { { { , ~ ^   ",
"    ^ / ~ ~ ~ ~ ~ / ^     ",
"    ( _ _ : ^ : _ _ (     ",
"      ( ( ( ( ( ( (       ",
"      < [ } | } [ <       ",
"    1 2 3 4 5 4 3 2 1     ",
"    6 7 8 9 0 9 8 7 6     ",
"  a b c d e f e d c b a   ",
"  g h i | j k j | i h g   ",
"l m n 1 o p q p o 1 n m l ",
"r s t u v 1 1 1 v u t s r ",
"  w x y z A A A z y x w   ",
"  B C D E F F F E D C B   ",
"    G H I C C C I H G     ",
"    J K L M N M L K J     ",
"      O P Q R Q P O       ",
"      S T U V U T S       ",
"    W X Y Z ` Z Y X W     ",
"     ...+.@.#.@.+... .    ",
"  $.%.&.*.=.-.=.*.&.%.$.  ",
"  ;.>.,.V '.'.'.V ,.>.;.  ",
").!.~.W {.].^.].{.W ~.!.).",
"/.(._.:.<.W W W <.:._.(./.",
"  [.}.|.1.2.2.2.1.|.}.[.  ",
"  3.4.5.}.6.6.6.}.5.4.3.  ",
"    7.8.9.4.4.4.9.8.7.    ",
"    0.a.b.c.d.c.b.a.0.    ",
"      e.f.g.h.g.f.e.      ",
"      i.j.k.l.k.j.i.      ",
"    m.n.o.p.q.p.o.n.m.    ",
"    r.s.t.u.v.u.t.s.r.    ",
"  w.x.y.z.A.B.A.z.y.x.w.  ",
"  C.D.E.l.F.F.F.l.E.D.C.  ",
"G.H.I.m.E.J.K.J.E.m.I.H.G.",
"L.M.N.O.P.m.m.m.P.O.N.M.L.",
"  Q.R.S.T.U.U.U.T.S.R.Q.  ",
"  V.W.X.R.Y.Y.Y.R.X.W.V.  ",
"    Z.`. +W.W.W. +`.Z.    ",
"    .+++@+#+$+#+@+++.+    ",
"      %+&+*+=+*+&+%+      ",
"      -+;+>+,+>+;+-+      ",
"    '+)+!+~+{+~+!+)+'+    ",
"    ]+^+/+(+_+(+/+^+]+    ",
"  :+<+[+}+|+1+|+}+[+<+:+  ",
"  2+3+4+,+5+5+5+,+4+3+2+  ",
"6+7+8+'+9+0+a+0+9+'+8+7+6+",
"b+c+d+e+f+'+'+'+f+e+d+c+b+",
"  g+h+i+j+k+k+k+j+i+h+g+  ",
"  l+m+n+o+p+p+p+o+n+m+l+  ",
"    q+r+s+m+m+m+s+r+q+    ",
"    t+u+v+w+x+w+v+u+t+    ",
"      y+z+A+B+A+z+y+      ",
"      C+D+E+F+E+D+C+      ",
"    G+H+I+J+K+J+I+H+G+    ",
"    L+M+N+O+P+O+N+M+L+    ",
"  Q+R+S+T+U+V+U+T+S+R+Q+  ",
"  W+X+Y+F+Z+Z+Z+F+Y+X+W+  ",
"`+ @.@G++@@@#@@@+@G+.@ @`+",
"$@%@&@*@=@G+G+G+=@*@&@%@$@",
"  -@;@>@,@'@'@'@,@>@;@-@  ",
"  )@!@~@{@]@]@]@{@~@!@)@  ",
"    ^@/@(@!@!@!@(@/@^@    ",
"    _@:@<@[@}@[@<@:@_@    ",
"      |@1@2@3@2@1@|@      ",
"      4@5@6@7@6@5@4@      ",
"    8@9@0@a@b@a@0@9@8@    ",
"    c@d@e@f@g@f@e@d@c@    ",
"  h@i@j@k@l@m@l@k@j@i@h@  ",
"  n@o@p@7@q@q@q@7@p@o@n@  ",
"r@s@t@8@u@v@w@v@u@8@t@s@r@",
"x@y@z@A@B@8@8@8@B@A@z@y@x@",
"  C@y@D@E@F@F@F@E@D@y@C@  ",
"  G@H@I@J@K@K@K@J@I@H@G@  ",
"    L@M@N@H@H@H@N@M@L@    ",
"    O@P@Q@R@S@R@Q@P@O@    ",
"      T@U@V@W@V@U@T@      ",
"      X@Y@Z@`@Z@Y@X@      ",
"     #.#+#@###@#+#.# #    ",
"    $#%#&#*#=#*#&#%#$#    ",
"  -#;#>#,#'#)#'#,#>#;#-#  ",
"  !#~#{#`@]#^#]#`@{#~#!#  ",
"/#(#_# #:#<#[#<#:# #_#(#/#",
"}#|#1#2#3# # # #3#2#1#|#}#",
"  4#|#5#6#7#7#7#6#5#|#4#  ",
"  8#9#0#a#b#b#b#a#0#9#8#  ",
"    c#d#e#9#9#9#e#d#c#    ",
"    f#g#h#i#j#i#h#g#f#    ",
"      k#l#m#n#m#l#k#      ",
"      o#p#q#r#q#p#o#      ",
"    s#t#u#v#w#v#u#t#s#    ",
"    x#y#z#A#B#A#z#y#x#    ",
"  C#D#E#F#G#H#G#F#E#D#C#  ",
"  I#J#K#r#L#M#L#r#K#J#I#  ",
"N#O#P#s#Q#R#S#R#Q#s#P#O#N#",
"T#U#V#W#X#s#s#s#X#W#V#U#T#",
"  Y#U#Z#`# $ $ $`#Z#U#Y#  ",
"  .$+$@$#$$$$$$$#$@$+$.$  ",
"    %$&$*$+$+$+$*$&$%$    ",
"    =$-$;$>$,$>$;$-$=$    ",
"      '$)$!$~$!$)$'$      ",
"      {$]$^$/$^$]${$      ",
"    ($_$:$<$[$<$:$_$($    ",
"    }$|$1$2$3$2$1$|$}$    ",
"  4$}$5$6$7$8$7$6$5$}$4$  ",
"  9$0$a$/$b$c$b$/$a$0$9$  ",
"d$e$f$($a$g$h$g$a$($f$e$d$",
"i$j$k$l$m$($($($m$l$k$j$i$",
"  n$j$o$p$q$q$q$p$o$j$n$  ",
"  r$s$t$u$v$v$v$u$t$s$r$  ",
"    w$x$y$s$s$s$y$x$w$    ",
"    z$A$B$C$D$C$B$A$z$    ",
"      E$F$G$G$G$F$E$      ",
"      H$I$J$K$J$I$H$      ",
"    L$M$N$O$P$O$N$M$L$    ",
"    Q$R$S$T$U$T$S$R$Q$    ",
"  V$Q$W$X$Y$Z$Y$X$W$Q$V$  ",
"  `$ %.%K$+%@%+%K$.% %`$  ",
"#%$%%%L$&%*%=%*%&%L$%%$%#%",
"-%;%>%,%'%L$L$L$'%,%>%;%-%",
"  )%;%!%~%{%{%{%~%!%;%)%  ",
"  ]%^%/%(%_%_%_%(%/%^%]%  ",
"    :%<%[%^%^%^%[%<%:%    ",
"    }%|%1%2%3%2%1%|%}%    ",
"      4%5%6%6%6%5%4%      "};
