/* XPM */
static char * mosaic_big_xpm[] = {
"18 176 54 1",
" 	c None",
".	c #212121",
"+	c #050505",
"@	c #000000",
"#	c #FF98FD",
"$	c #FF59FC",
"%	c #FF00FB",
"&	c #980096",
"*	c #C900C6",
"=	c #BC98FF",
"-	c #9359FF",
";	c #5900FF",
">	c #350098",
",	c #4600C9",
"'	c #98B9FF",
")	c #598EFF",
"!	c #0051FF",
"~	c #003098",
"{	c #0040C9",
"]	c #98E6FF",
"^	c #59D7FF",
"/	c #00C2FF",
"(	c #007498",
"_	c #0099C9",
":	c #98FFE0",
"<	c #59FFCD",
"[	c #00FFB2",
"}	c #00986A",
"|	c #00C98C",
"1	c #A5FF98",
"2	c #6EFF59",
"3	c #20FF00",
"4	c #139800",
"5	c #19C900",
"6	c #D6FF98",
"7	c #BDFF59",
"8	c #9AFF00",
"9	c #5C9800",
"0	c #79C900",
"a	c #FFFD98",
"b	c #FFFC59",
"c	c #FFFB00",
"d	c #989600",
"e	c #C9C600",
"f	c #FFB998",
"g	c #FF8E59",
"h	c #FF5100",
"i	c #983000",
"j	c #FF9898",
"k	c #C94000",
"l	c #FF5959",
"m	c #FF0000",
"n	c #980000",
"o	c #C90000",
"    ..........    ",
"   ...++++++@@@   ",
"   ...++++++@@@   ",
"  .....++++@@@@@  ",
"  .....++++@@@@@  ",
" .......++@@@@@@@ ",
" .......++@@@@@@@ ",
".........@@@@@@@@@",
".@@@@@@@@@@@@@@@@@",
" .@@@@@@@@@@@@@@@ ",
" .@@@@@@@@@@@@@@@ ",
"  .@@@@@@@@@@@@@  ",
"  .@@@@@@@@@@@@@  ",
"   .@@@@@@@@@@@   ",
"   .@@@@@@@@@@@   ",
"    .@@@@@@@@@    ",
"    ##########    ",
"   ###$$$$$$%%&   ",
"   ###$$$$$$%%&   ",
"  #####$$$$%%%%&  ",
"  #####$$$$%%%%&  ",
" #######$$%%%%%%& ",
" #######$$%%%%%%& ",
"#########%%%%%%%%&",
"#%%%%%%%%&&&&&&&&&",
" #%%%%%%**&&&&&&& ",
" #%%%%%%**&&&&&&& ",
"  #%%%%****&&&&&  ",
"  #%%%%****&&&&&  ",
"   #%%******&&&   ",
"   #%%******&&&   ",
"    #&&&&&&&&&    ",
"    ==========    ",
"   ===------;;>   ",
"   ===------;;>   ",
"  =====----;;;;>  ",
"  =====----;;;;>  ",
" =======--;;;;;;> ",
" =======--;;;;;;> ",
"=========;;;;;;;;>",
"=;;;;;;;;>>>>>>>>>",
" =;;;;;;,,>>>>>>> ",
" =;;;;;;,,>>>>>>> ",
"  =;;;;,,,,>>>>>  ",
"  =;;;;,,,,>>>>>  ",
"   =;;,,,,,,>>>   ",
"   =;;,,,,,,>>>   ",
"    =>>>>>>>>>    ",
"    ''''''''''    ",
"   '''))))))!!~   ",
"   '''))))))!!~   ",
"  '''''))))!!!!~  ",
"  '''''))))!!!!~  ",
" '''''''))!!!!!!~ ",
" '''''''))!!!!!!~ ",
"'''''''''!!!!!!!!~",
"'!!!!!!!!~~~~~~~~~",
" '!!!!!!{{~~~~~~~ ",
" '!!!!!!{{~~~~~~~ ",
"  '!!!!{{{{~~~~~  ",
"  '!!!!{{{{~~~~~  ",
"   '!!{{{{{{~~~   ",
"   '!!{{{{{{~~~   ",
"    '~~~~~~~~~    ",
"    ]]]]]]]]]]    ",
"   ]]]^^^^^^//(   ",
"   ]]]^^^^^^//(   ",
"  ]]]]]^^^^////(  ",
"  ]]]]]^^^^////(  ",
" ]]]]]]]^^//////( ",
" ]]]]]]]^^//////( ",
"]]]]]]]]]////////(",
"]////////(((((((((",
" ]//////__((((((( ",
" ]//////__((((((( ",
"  ]////____(((((  ",
"  ]////____(((((  ",
"   ]//______(((   ",
"   ]//______(((   ",
"    ](((((((((    ",
"    ::::::::::    ",
"   :::<<<<<<[[}   ",
"   :::<<<<<<[[}   ",
"  :::::<<<<[[[[}  ",
"  :::::<<<<[[[[}  ",
" :::::::<<[[[[[[} ",
" :::::::<<[[[[[[} ",
":::::::::[[[[[[[[}",
":[[[[[[[[}}}}}}}}}",
" :[[[[[[||}}}}}}} ",
" :[[[[[[||}}}}}}} ",
"  :[[[[||||}}}}}  ",
"  :[[[[||||}}}}}  ",
"   :[[||||||}}}   ",
"   :[[||||||}}}   ",
"    :}}}}}}}}}    ",
"    1111111111    ",
"   111222222334   ",
"   111222222334   ",
"  11111222233334  ",
"  11111222233334  ",
" 1111111223333334 ",
" 1111111223333334 ",
"111111111333333334",
"133333333444444444",
" 1333333554444444 ",
" 1333333554444444 ",
"  13333555544444  ",
"  13333555544444  ",
"   133555555444   ",
"   133555555444   ",
"    1444444444    ",
"    6666666666    ",
"   666777777889   ",
"   666777777889   ",
"  66666777788889  ",
"  66666777788889  ",
" 6666666778888889 ",
" 6666666778888889 ",
"666666666888888889",
"688888888999999999",
" 6888888009999999 ",
" 6888888009999999 ",
"  68888000099999  ",
"  68888000099999  ",
"   688000000999   ",
"   688000000999   ",
"    6999999999    ",
"    aaaaaaaaaa    ",
"   aaabbbbbbccd   ",
"   aaabbbbbbccd   ",
"  aaaaabbbbccccd  ",
"  aaaaabbbbccccd  ",
" aaaaaaabbccccccd ",
" aaaaaaabbccccccd ",
"aaaaaaaaaccccccccd",
"accccccccddddddddd",
" acccccceeddddddd ",
" acccccceeddddddd ",
"  acccceeeeddddd  ",
"  acccceeeeddddd  ",
"   acceeeeeeddd   ",
"   acceeeeeeddd   ",
"    addddddddd    ",
"    ffffffffff    ",
"   fffgggggghhi   ",
"   fffgggggghhi   ",
"  fffffgggghhhhi  ",
"  fffffgggghhhhi  ",
" fffffffgghhhhhhi ",
" fffffffgghhhhhhi ",
"jffffffffhhhhhhhhi",
"jhhhhhhhhiiiiiiiii",
" fhhhhhhkkiiiiiii ",
" fhhhhhhkkiiiiiii ",
"  fhhhhkkkkiiiii  ",
"  fhhhhkkkkiiiii  ",
"   fhhkkkkkkiii   ",
"   fhhkkkkkkiii   ",
"    fiiiiiiiii    ",
"    jjjjjjjjjj    ",
"   jjjllllllmmn   ",
"   jjjllllllmmn   ",
"  jjjjjllllmmmmn  ",
"  jjjjjllllmmmmn  ",
" jjjjjjjllmmmmmmn ",
" jjjjjjjllmmmmmmn ",
"jjjjjjjjjmmmmmmmmn",
"jmmmmmmmmnnnnnnnnn",
" jmmmmmmoonnnnnnn ",
" jmmmmmmoonnnnnnn ",
"  jmmmmoooonnnnn  ",
"  jmmmmoooonnnnn  ",
"   jmmoooooonnn   ",
"   jmmoooooonnn   ",
"    jnnnnnnnnn    "};
