/* XPM */
static char * mosaic_small_xpm[] = {
"13 132 54 1",
" 	c None",
".	c #262626",
"+	c #060606",
"@	c #000000",
"#	c #FF98FD",
"$	c #FF59FC",
"%	c #FF00FB",
"&	c #980096",
"*	c #C900C6",
"=	c #BC98FF",
"-	c #9359FF",
";	c #5900FF",
">	c #350098",
",	c #4600C9",
"'	c #98B9FF",
")	c #598EFF",
"!	c #0051FF",
"~	c #003098",
"{	c #0040C9",
"]	c #98E6FF",
"^	c #59D7FF",
"/	c #00C2FF",
"(	c #007498",
"_	c #0099C9",
":	c #98FFE0",
"<	c #59FFCD",
"[	c #00FFB2",
"}	c #00986A",
"|	c #00C98C",
"1	c #A5FF98",
"2	c #6EFF59",
"3	c #20FF00",
"4	c #139800",
"5	c #19C900",
"6	c #D6FF98",
"7	c #BDFF59",
"8	c #9AFF00",
"9	c #5C9800",
"0	c #79C900",
"a	c #FFFD98",
"b	c #FFFC59",
"c	c #FFFB00",
"d	c #989600",
"e	c #C9C600",
"f	c #FFB998",
"g	c #FF8E59",
"h	c #FF5100",
"i	c #983000",
"j	c #C94000",
"k	c #FF9898",
"l	c #FF5959",
"m	c #FF0000",
"n	c #980000",
"o	c #C90000",
"   .......   ",
"  ..+++++@@  ",
"  ..+++++@@  ",
" ....+++@@@@ ",
" ....+++@@@@ ",
"......+@@@@@@",
".@@@@@@@@@@@@",
" .@@@@@@@@@@ ",
" .@@@@@@@@@@ ",
"  .@@@@@@@@  ",
"  .@@@@@@@@  ",
"   .@@@@@@   ",
"   #######   ",
"  ##$$$$$%&  ",
"  ##$$$$$%&  ",
" ####$$$%%%& ",
" ####$$$%%%& ",
"######$%%%%%&",
"#%%%%%*&&&&&&",
" #%%%***&&&& ",
" #%%%***&&&& ",
"  #%*****&&  ",
"  #%*****&&  ",
"   #&&&&&&   ",
"   =======   ",
"  ==-----;>  ",
"  ==-----;>  ",
" ====---;;;> ",
" ====---;;;> ",
"======-;;;;;>",
"=;;;;;,>>>>>>",
" =;;;,,,>>>> ",
" =;;;,,,>>>> ",
"  =;,,,,,>>  ",
"  =;,,,,,>>  ",
"   =>>>>>>   ",
"   '''''''   ",
"  '')))))!~  ",
"  '')))))!~  ",
" '''')))!!!~ ",
" '''')))!!!~ ",
"'''''')!!!!!~",
"'!!!!!{~~~~~~",
" '!!!{{{~~~~ ",
" '!!!{{{~~~~ ",
"  '!{{{{{~~  ",
"  '!{{{{{~~  ",
"   '~~~~~~   ",
"   ]]]]]]]   ",
"  ]]^^^^^/(  ",
"  ]]^^^^^/(  ",
" ]]]]^^^///( ",
" ]]]]^^^///( ",
"]]]]]]^/////(",
"]/////_((((((",
" ]///___(((( ",
" ]///___(((( ",
"  ]/_____((  ",
"  ]/_____((  ",
"   ]((((((   ",
"   :::::::   ",
"  ::<<<<<[}  ",
"  ::<<<<<[}  ",
" ::::<<<[[[} ",
" ::::<<<[[[} ",
"::::::<[[[[[}",
":[[[[[|}}}}}}",
" :[[[|||}}}} ",
" :[[[|||}}}} ",
"  :[|||||}}  ",
"  :[|||||}}  ",
"   :}}}}}}   ",
"   1111111   ",
"  112222234  ",
"  112222234  ",
" 11112223334 ",
" 11112223334 ",
"1111112333334",
"1333335444444",
" 13335554444 ",
" 13335554444 ",
"  135555544  ",
"  135555544  ",
"   1444444   ",
"   6666666   ",
"  667777789  ",
"  667777789  ",
" 66667778889 ",
" 66667778889 ",
"6666667888889",
"6888880999999",
" 68880009999 ",
" 68880009999 ",
"  680000099  ",
"  680000099  ",
"   6999999   ",
"   aaaaaaa   ",
"  aabbbbbcd  ",
"  aabbbbbcd  ",
" aaaabbbcccd ",
" aaaabbbcccd ",
"aaaaaabcccccd",
"acccccedddddd",
" accceeedddd ",
" accceeedddd ",
"  aceeeeedd  ",
"  aceeeeedd  ",
"   adddddd   ",
"   fffffff   ",
"  ffggggghi  ",
"  ffggggghi  ",
" ffffggghhhi ",
" ffffggghhhi ",
"ffffffghhhhhi",
"fhhhhhjiiiiii",
" fhhhjjjiiii ",
" fhhhjjjiiii ",
"  fhjjjjjii  ",
"  fhjjjjjii  ",
"   fiiiiii   ",
"   kkkkkkk   ",
"  kklllllmn  ",
"  kklllllmn  ",
" kkkklllmmmn ",
" kkkklllmmmn ",
"kkkkkklmmmmmn",
"kmmmmmonnnnnn",
" kmmmooonnnn ",
" kmmmooonnnn ",
"  kmooooonn  ",
"  kmooooonn  ",
"   knnnnnn   "};
