/* XPM */
static char * tiny_xpm[] = {
"8 88 33 1",
" 	c None",
".	c #000000",
"+	c #272727",
"@	c #FF92FD",
"#	c #FF01FC",
"$	c #94019E",
"%	c #B892FF",
"&	c #5C01FF",
"*	c #3601A0",
"=	c #92B5FF",
"-	c #0452FF",
";	c #042FA0",
">	c #92E5FF",
",	c #04C2FF",
"'	c #0470A0",
")	c #92FFDE",
"!	c #04FFBC",
"~	c #049279",
"{	c #A0FF92",
"]	c #23FF20",
"^	c #169220",
"/	c #D4FF92",
"(	c #9CFF20",
"_	c #5B9220",
":	c #FFFD92",
"<	c #FFFB20",
"[	c #949020",
"}	c #FFB592",
"|	c #FF5220",
"1	c #942F20",
"2	c #FF9292",
"3	c #FF0120",
"4	c #940120",
"  ....  ",
" ...... ",
" ...... ",
"...++...",
"...++...",
" ...... ",
" ...... ",
"  ....  ",
"  @@@@  ",
" @####$ ",
" @####$ ",
"@######$",
"@######$",
" @####$ ",
" @####$ ",
"  $$$$  ",
"  %%%%  ",
" %&&&&* ",
" %&&&&* ",
"%&&&&&&*",
"%&&&&&&*",
" %&&&&* ",
" %&&&&* ",
"  ****  ",
"  ====  ",
" =----; ",
" =----; ",
"=------;",
"=------;",
" =----; ",
" =----; ",
"  ;;;;  ",
"  >>>>  ",
" >,,,,' ",
" >,,,,' ",
">,,,,,,'",
">,,,,,,'",
" >,,,,' ",
" >,,,,' ",
"  ''''  ",
"  ))))  ",
" )!!!!~ ",
" )!!!!~ ",
")!!!!!!~",
")!!!!!!~",
" )!!!!~ ",
" )!!!!~ ",
"  ~~~~  ",
"  {{{{  ",
" {]]]]^ ",
" {]]]]^ ",
"{]]]]]]^",
"{]]]]]]^",
" {]]]]^ ",
" {]]]]^ ",
"  ^^^^  ",
"  ////  ",
" /((((_ ",
" /((((_ ",
"/((((((_",
"/((((((_",
" /((((_ ",
" /((((_ ",
"  ____  ",
"  ::::  ",
" :<<<<[ ",
" :<<<<[ ",
":<<<<<<[",
":<<<<<<[",
" :<<<<[ ",
" :<<<<[ ",
"  [[[[  ",
"  }}}}  ",
" }||||1 ",
" }||||1 ",
"}||||||1",
"}||||||1",
" }||||1 ",
" }||||1 ",
"  1111  ",
"  2222  ",
" 233334 ",
" 233334 ",
"23333334",
"23333334",
" 233334 ",
" 233334 ",
"  4444  "};
